<svg xmlns="http://www.w3.org/2000/svg" width="15.506" height="15.532" viewBox="0 0 15.506 15.532">
  <path id="pencil" d="M15.506,2.424A2.428,2.428,0,0,0,11.359.711L1.585,10.525a2.909,2.909,0,0,0-.7,1.137l-.009.028L0,15.532l3.852-.862.029-.009a2.914,2.914,0,0,0,1.139-.7L14.8,4.142A2.412,2.412,0,0,0,15.506,2.424ZM2.136,13.811,1.728,13.4l.295-1.3L3.437,13.52Zm11.8-10.525L4.446,12.815,2.728,11.1l6.5-6.527.99.99.857-.857-.992-.992.922-.926L12,3.776l.857-.857-1-1,.355-.357a1.216,1.216,0,1,1,1.72,1.719ZM6.378,14.306h9.127v1.212H5.17Zm0,0" transform="translate(0 0.001)" fill="#fcae1b"/>
</svg>
