<svg id="Group_1178" data-name="Group 1178" xmlns="http://www.w3.org/2000/svg" width="20" height="20" viewBox="0 0 20 20">
  <g id="Group_1100" data-name="Group 1100" transform="translate(1.072 1.072)">
    <circle id="Ellipse_267" data-name="Ellipse 267" cx="8.928" cy="8.928" r="8.928" transform="translate(0 0)" fill="#fff"/>
    <path id="Path_459" data-name="Path 459" d="M-44.351,147.471a5.586,5.586,0,0,1,5.58,5.58,5.586,5.586,0,0,1-5.58,5.58,5.586,5.586,0,0,1-5.58-5.58,5.586,5.586,0,0,1,5.58-5.58m0-3.348a8.928,8.928,0,0,0-8.928,8.928,8.928,8.928,0,0,0,8.928,8.928,8.928,8.928,0,0,0,8.928-8.928,8.928,8.928,0,0,0-8.928-8.928Z" transform="translate(53.279 -144.123)" fill="#ea374c"/>
  </g>
  <path id="Path_460" data-name="Path 460" d="M-44.279,163.123a10.011,10.011,0,0,1-10-10,10.011,10.011,0,0,1,10-10,10.012,10.012,0,0,1,10,10A10.011,10.011,0,0,1-44.279,163.123Zm0-17.778a7.787,7.787,0,0,0-7.778,7.778,7.786,7.786,0,0,0,7.778,7.778,7.786,7.786,0,0,0,7.778-7.778A7.787,7.787,0,0,0-44.279,145.345Z" transform="translate(54.279 -143.123)" fill="#fff"/>
  <rect id="Rectangle_787" data-name="Rectangle 787" width="2.144" height="10.72" transform="translate(5.452 6.968) rotate(-45)" fill="#ea374c"/>
</svg>
