<svg xmlns="http://www.w3.org/2000/svg" width="15.922" height="16.699" viewBox="0 0 15.922 16.699">
  <path id="cogwheel" d="M16.089,10.212l0,0-1.07-.983a7,7,0,0,0,0-1.752l1.073-.986A1.057,1.057,0,0,0,16.283,5.2L15.1,3.155a1.047,1.047,0,0,0-1.222-.474l-1.389.438a6.363,6.363,0,0,0-1.513-.879L10.658.815A1.047,1.047,0,0,0,9.643,0H7.278A1.047,1.047,0,0,0,6.263.814L5.942,2.24a6.365,6.365,0,0,0-1.513.879l-1.39-.438a1.046,1.046,0,0,0-1.218.47L.635,5.2a1.055,1.055,0,0,0,.2,1.289l1.07.983a7.124,7.124,0,0,0-.056.876,7.249,7.249,0,0,0,.055.876l-1.073.986A1.056,1.056,0,0,0,.637,11.5l1.181,2.041a1.047,1.047,0,0,0,1.222.475l1.389-.438a6.365,6.365,0,0,0,1.513.879l.321,1.425a1.047,1.047,0,0,0,1.015.816H9.643a1.047,1.047,0,0,0,1.015-.814l.321-1.426a6.342,6.342,0,0,0,1.513-.879l1.39.438a1.045,1.045,0,0,0,1.218-.471l1.186-2.05A1.055,1.055,0,0,0,16.089,10.212ZM8.46,11.829A3.479,3.479,0,1,1,11.939,8.35,3.483,3.483,0,0,1,8.46,11.829Zm0,0" transform="translate(-0.5)" fill="#1b6580"/>
</svg>
