<svg id="setup" xmlns="http://www.w3.org/2000/svg" width="17.498" height="15.857" viewBox="0 0 17.498 15.857">
  <path id="Path_465" data-name="Path 465" d="M3.783,53.628H.521a.521.521,0,1,1,0-1.041H3.783a.521.521,0,1,1,0,1.041Z" transform="translate(0 -50.723)" fill="#37eadc"/>
  <path id="Path_466" data-name="Path 466" d="M86.521,9.272a2.385,2.385,0,1,1,2.385-2.385A2.387,2.387,0,0,1,86.521,9.272Zm0-3.728a1.343,1.343,0,1,0,1.343,1.344A1.345,1.345,0,0,0,86.521,5.544Z" transform="translate(-80.925 -4.503)" fill="#37eadc"/>
  <path id="Path_467" data-name="Path 467" d="M237.307,53.628h-7.781a.521.521,0,1,1,0-1.041h7.781a.521.521,0,0,1,0,1.041Z" transform="translate(-220.33 -50.723)" fill="#37eadc"/>
  <path id="Path_468" data-name="Path 468" d="M266.814,171.543a2.385,2.385,0,1,1,2.385-2.385A2.387,2.387,0,0,1,266.814,171.543Zm0-3.728a1.343,1.343,0,1,0,1.343,1.343A1.345,1.345,0,0,0,266.814,167.815Z" transform="translate(-254.338 -161.23)" fill="#37eadc"/>
  <path id="Path_469" data-name="Path 469" d="M8.884,215.891H.521a.521.521,0,1,1,0-1.041H8.884a.521.521,0,1,1,0,1.041Z" transform="translate(0 -207.442)" fill="#37eadc"/>
  <path id="Path_470" data-name="Path 470" d="M363.787,215.891h-2.68a.521.521,0,0,1,0-1.041h2.68a.521.521,0,0,1,0,1.041Z" transform="translate(-346.81 -207.442)" fill="#37eadc"/>
  <path id="Path_471" data-name="Path 471" d="M71.5,333.807a2.385,2.385,0,1,1,2.385-2.385A2.387,2.387,0,0,1,71.5,333.807Zm0-3.728a1.343,1.343,0,1,0,1.343,1.343A1.345,1.345,0,0,0,71.5,330.078Z" transform="translate(-66.476 -317.949)" fill="#37eadc"/>
  <path id="Path_472" data-name="Path 472" d="M222.863,378.155H214.5a.521.521,0,0,1,0-1.041h8.364a.521.521,0,1,1,0,1.041Z" transform="translate(-205.886 -364.162)" fill="#37eadc"/>
  <path id="Path_473" data-name="Path 473" d="M3.2,378.154H.521a.521.521,0,0,1,0-1.041H3.2a.521.521,0,0,1,0,1.041Z" transform="translate(0 -364.161)" fill="#37eadc"/>
</svg>
